<svg xmlns="http://www.w3.org/2000/svg" width="20" height="20" fill="none" xmlns:v="https://vecta.io/nano"><g clip-path="url(#C)"><rect width="20" height="20" rx="10" fill="#fff"/><rect y="-1" width="20" height="21.053" rx="10" fill="url(#A)"/><path d="M5.8 6.805a1.7 1.7 0 0 1 1.7-1.7h0v8.947H5.8V6.805z" fill="#f3f3f3"/><path d="M16 14.053a9.36 9.36 0 0 0-.647-3.424c-.427-1.086-1.053-2.072-1.843-2.903s-1.726-1.49-2.758-1.94-2.137-.681-3.253-.681v1.735c.9 0 1.791.187 2.622.549a6.84 6.84 0 0 1 2.223 1.563 7.25 7.25 0 0 1 1.485 2.34c.344.875.521 1.813.521 2.76H16z" fill="url(#B)"/></g><defs><linearGradient id="A" x1="3.2" y1=".895" x2="17.857" y2="17.947" gradientUnits="userSpaceOnUse"><stop offset=".611" stop-color="#181818"/><stop offset=".886" stop-color="#313131"/></linearGradient><linearGradient id="B" x1="7.5" y1="6" x2="15.627" y2="13.636" gradientUnits="userSpaceOnUse"><stop stop-color="#c2c2c2"/><stop offset=".666" stop-color="#f3f3f3"/></linearGradient><clipPath id="C"><rect width="20" height="20" rx="10" fill="#fff"/></clipPath></defs></svg>